<svg xmlns="http://www.w3.org/2000/svg" xmlns:xlink="http://www.w3.org/1999/xlink" xmlns:lucid="lucid" width="860" height="309.36"><g transform="translate(-40 -142.8644444444447)" lucid:page-tab-id="0_0"><path d="M677.44 185.42h-26.16c-4.08 0-7.44 3.36-7.44 7.44v198.72c0 4.08 3.36 7.44 7.44 7.44h194.88c4.32 0 7.68-3.36 7.68-7.44V380.3z" stroke="#000" stroke-opacity="0" stroke-width=".98" fill="#443c3c"/><path d="M688.72 380.3c-14.4 0-26.16-11.76-26.16-26.16V192.86c0-4.08 3.36-7.44 7.44-7.44h176.16c4.32 0 7.68 3.36 7.68 7.44v161.28c0 14.4 7.92 26.16 22.32 26.16z" stroke="#000" stroke-opacity="0" stroke-width=".98" fill="#fff"/><path d="M853.84 192.86c0-4.08-3.36-7.44-7.68-7.44H670c-4.08 0-7.44 3.36-7.44 7.44v41.28h191.28z" stroke="#000" stroke-opacity="0" stroke-width=".98" fill="#f75252"/><path d="M853.84 196.7v-3.84c0-4.08-3.36-7.44-7.68-7.44H670c-4.08 0-7.44 3.36-7.44 7.44v121.2c69.6-103.44 170.64-115.92 191.28-117.36z" stroke="#000" stroke-opacity="0" stroke-width=".98" fill="#fff" fill-opacity=".2"/><path d="M722.56 209.66c0 7.44-6 13.2-13.2 13.2-7.2 0-13.2-5.76-13.2-13.2 0-7.2 6-12.96 13.2-12.96 7.2 0 13.2 5.76 13.2 12.96zM831.28 209.66c0 7.44-6 13.2-13.2 13.2-7.2 0-12.96-5.76-12.96-13.2 0-7.2 5.76-12.96 12.96-12.96 7.2 0 13.2 5.76 13.2 12.96z" stroke="#000" stroke-opacity="0" stroke-width=".98" fill="#fff"/><path d="M726.16 324.14h85.44c10.8 0 19.68 8.88 19.68 19.68v1.92c0 10.8-8.88 19.68-19.68 19.68h-85.44v-41.28z" stroke="#000" stroke-opacity="0" stroke-width=".98" fill="#17c4e0"/><path d="M726.16 335.42h85.2c4.8 0 8.64 3.84 8.64 8.4v1.68c0 4.8-3.84 8.64-8.64 8.64h-85.2v-18.72zM692.56 350.3h14.88v15.12h-14.88z" stroke="#000" stroke-opacity="0" stroke-width=".98" fill="#dee0e0"/><path d="M692.56 267.98h14.88v82.32h-14.88z" stroke="#000" stroke-opacity="0" stroke-width=".98" fill="#f7b01a"/><path d="M692.56 267.98l7.44-22.56 7.44 22.56z" stroke="#000" stroke-opacity="0" stroke-width=".98" fill="#dee0e0"/><path d="M752.08 311.42l-8.16-24.24c-2.64-7.68 1.68-16.08 9.36-18.48 1.68-.72 2.88-.72 4.56-.72h30.48c8.16 0 14.64 6.48 14.64 14.64 0 1.68-.24 3.12-.72 4.56l-7.92 24.24c-2.64 7.68-9.6 12.72-17.76 12.72h-6.96c-8.16 0-15.12-5.04-17.52-12.72z" stroke="#000" stroke-opacity="0" stroke-width=".98" fill="#f75252"/><path d="M767.2 248.06c2.64 2.64 2.64 6.96 0 9.6-2.64 2.64-6.96 2.64-9.6 0-2.64-2.64-3.84-13.68-3.84-13.68s10.8 1.2 13.44 4.08z" stroke="#000" stroke-opacity="0" stroke-width=".98" fill="#658e35"/><path d="M776.08 267.98h-18.24c-1.68 0-2.88 0-4.56.72-7.68 2.4-12 10.8-9.36 18.48l8.16 24.24c1.92 5.52 5.76 9.6 11.52 11.76-6.48-29.76 3.6-46.8 12.48-55.2z" stroke="#000" stroke-opacity="0" stroke-width=".98" fill="#fff" fill-opacity=".2"/><path d="M876.16 376.7c-8.64 0-18.72-6-18.72-22.56V192.86c0-6.24-5.04-11.28-11.28-11.28h-22.32v-7.44c0-6.24-5.04-11.28-11.28-11.28h-15.12c-6.24 0-11.28 5.04-11.28 11.28v7.44h-71.04v-7.44c-.24-6.24-5.04-11.28-11.28-11.28h-15.12c-6.24 0-11.28 5.04-11.28 11.28v7.44h-26.16c-6.24 0-11.28 5.04-11.28 11.28v198.72c0 6.24 5.04 11.28 11.28 11.28h194.88c6.24 0 11.28-5.04 11.28-11.28v-7.44h18.72c2.16 0 3.84-1.68 3.84-3.84 0-1.92-1.68-3.6-3.84-3.6zm-82.32-202.56c0-2.16 1.68-3.84 3.6-3.84h15.12c1.92 0 3.6 1.68 3.6 3.84v7.44h-22.32zm-108.72 0c0-2.16 1.44-3.84 3.6-3.84h15.12c1.92 0 3.6 1.68 3.6 3.84v7.44h-22.32zm-7.68 14.88h30v3.84c-6.48.96-11.76 5.04-13.92 11.28-3.12 8.64 1.44 18.48 10.32 21.6 8.64 3.12 18.24-1.68 21.36-10.32 3.12-8.88-1.44-18.48-10.08-21.6v-4.8h101.04v3.84c-6.48.96-11.76 5.04-13.92 11.28-3.12 8.64 1.44 18.48 10.32 21.6 8.64 3.12 18.48-1.68 21.36-10.32 3.12-8.88-1.44-18.48-10.08-21.6v-4.8h22.32c2.16 0 3.84 1.68 3.84 3.84v37.44H666.16v-37.44c0-2.16 1.68-3.84 3.84-3.84zm37.68 13.2c4.08 3.12 4.8 9.12 1.68 13.2s-8.88 4.8-13.2 1.68c-4.08-3.12-4.8-8.88-1.68-12.96 1.44-1.92 3.36-3.12 5.52-3.6v11.04h7.68zm108.72 0c4.08 3.12 4.8 9.12 1.68 13.2s-8.88 4.8-12.96 1.68c-4.32-3.12-5.04-8.88-1.92-12.96 1.44-1.92 3.36-3.12 5.52-3.6v11.04h7.68zM850 391.58c0 2.16-1.68 3.84-3.84 3.84H651.28c-2.16 0-3.84-1.68-3.84-3.84V192.86c0-2.16 1.68-3.84 3.84-3.84h8.16c-.48 1.44-.72 2.4-.72 3.84v161.28c0 16.56 13.44 30 30 30H850zM688.72 376.7c-12.48 0-22.56-10.08-22.56-22.56V237.98H850v116.16c0 8.16 2.4 15.6 6.72 20.88.48.48.72 1.2 1.2 1.68z" stroke="#000" stroke-opacity="0" stroke-width=".98"/><path d="M816.16 256.7h7.68v7.44h-7.68zM726.16 297.98h7.68v7.44h-7.68zM816.16 297.98h7.68v7.44h-7.68z" stroke="#000" stroke-opacity="0" stroke-width=".98"/><path d="M811.6 320.3h-18.24c2.16-2.4 3.36-4.8 4.56-7.68l7.92-24.24c.72-1.92.96-3.6.96-5.76 0-10.32-8.4-18.48-18.48-18.48h-9.12c.48-1.44.96-2.64 1.44-4.08 2.4-4.8 6.72-7.2 13.2-7.2v-7.44c-11.76 0-17.28 6.24-19.92 11.28-1.2 2.64-1.92 4.8-2.4 7.44h-13.68c-1.92 0-3.84.24-5.76.96-9.6 3.12-14.88 13.68-11.76 23.28l8.16 24.24c.96 2.88 2.4 5.28 4.56 7.68h-26.88c-1.92 0-3.6 1.68-3.6 3.84v41.28c0 1.92 1.68 3.6 3.6 3.6h85.44c12.96 0 23.28-10.32 23.52-23.28v-1.92c-.24-12.96-10.56-23.52-23.52-23.52zm-55.92-10.08l-8.16-24.24c-1.92-5.76 1.2-12 6.96-13.92 1.2-.24 2.16-.48 3.36-.48h13.44v3.84h7.44v-3.84h9.6c6 0 11.04 5.04 11.04 11.04 0 1.2-.24 2.16-.72 3.36l-7.92 24.24c-2.16 6.24-7.68 10.08-14.16 10.08h-6.96c-6.48 0-12-3.84-13.92-10.08zM730 339.02h81.36c2.64 0 4.8 2.16 4.8 4.8v1.68c0 2.64-2.16 4.8-4.8 4.8H730zm97.44 6.72c0 8.64-6.96 15.84-15.84 15.84H730v-3.6h81.36c6.96-.24 12.48-5.76 12.48-12.48v-1.68c0-6.72-5.52-12.24-12.48-12.24H730v-3.6h81.6c8.88 0 15.84 6.96 15.84 15.84zM711.28 267.5c0-.24-.24-.48-.24-.72l-7.44-22.56c-.48-1.2-1.2-1.92-2.4-2.4-1.92-.72-4.08.48-4.8 2.4l-7.44 22.56c0 .24-.24.48-.24.72v97.92c0 1.92 1.68 3.6 3.84 3.6h14.88c2.16 0 3.84-1.68 3.84-3.6v-97.44-.24-.24zm-7.44 79.2h-7.68v-75.12h7.68zM700 257.18l2.4 6.96h-4.8zm-3.84 104.4v-7.44h7.68v7.44z" stroke="#000" stroke-opacity="0" stroke-width=".98"/><path d="M754.96 260.3c4.08 4.08 10.8 4.08 15.12 0 4.08-4.08 4.08-10.8 0-15.12-3.36-3.12-12.24-4.32-15.84-4.8h-.96c-1.92.24-3.36 2.16-3.12 4.08 1.2 11.04 3.84 14.64 4.8 15.84zm9.6-9.6c1.2 1.2 1.2 3.12 0 4.32-1.2 1.2-3.12 1.2-4.32 0-.48-.72-1.44-3.36-1.92-6.48 3.12.72 5.76 1.44 6.24 2.16z" stroke="#000" stroke-opacity="0" stroke-width=".98"/><path d="M60 181.73c0-3.3 2.7-6 6-6h568c3.3 0 6 2.7 6 6V384c0 3.3-2.7 6-6 6H66c-3.3 0-6-2.7-6-6z" stroke="#000" stroke-opacity="0" stroke-width="3" fill="#fff" fill-opacity="0"/><use xlink:href="#a" transform="matrix(1,0,0,1,65,180.7288888888894) translate(10.937777777778422 169.83111111111072)"/><path d="M500 366c0-3.3 2.7-6 6-6h228c3.3 0 6 2.7 6 6v60.22c0 3.32-2.7 6-6 6H506c-3.3 0-6-2.68-6-6z" stroke="#000" stroke-opacity="0" stroke-width="3" fill="#fff" fill-opacity="0"/><use xlink:href="#b" transform="matrix(1,0,0,1,505,365) translate(60.742222222222296 50.60416666666661)"/><defs><path fill="#333" d="M594-693v133H385V0H229v-560H20v-133h574" id="c"/><path fill="#333" d="M183-166c-2 75 96 63 162 58v-113c-63-10-160-16-162 55zm-148 4c-1-153 163-182 310-156 2-69-30-99-103-98-49 0-104 8-139 21L84-515c50-14 111-24 175-25 152-2 229 65 229 215v310C426-2 349 12 261 11 129 9 36-30 35-162" id="d"/><path fill="#333" d="M64-139c45 18 98 32 157 32 46 0 72-1 75-39-14-53-105-62-152-89-51-30-89-66-91-145-5-167 225-188 368-133l-26 116c-36-12-75-23-125-23-84 0-86 59-30 82 96 39 207 59 204 194-2 116-97 158-224 158C148 14 81-2 39-18" id="e"/><path fill="#333" d="M562-526c-73 84-134 153-214 231 85 81 163 187 221 295H398c-51-81-107-170-179-230V0H70v-752l149-24v440c56-60 114-127 166-190h177" id="f"/><path fill="#333" d="M219-203c-2 61 24 87 82 90L280 10C144 10 70-36 70-173v-579l149-24v573" id="g"/><path fill="#333" d="M280-179c38-107 73-232 103-347h154C478-328 417-155 336 17c-43 91-86 168-218 168-42 1-85-10-113-21L31 45c41 16 112 24 141-7 14-14 26-35 36-60C132-173 63-338 10-526h158c31 117 71 240 112 347" id="h"/><g id="a"><use transform="matrix(0.1822222222222218,0,0,0.1822222222222218,0,0)" xlink:href="#c"/><use transform="matrix(0.1822222222222218,0,0,0.1822222222222218,98.21777777777758,0)" xlink:href="#d"/><use transform="matrix(0.1822222222222218,0,0,0.1822222222222218,198.98666666666622,0)" xlink:href="#e"/><use transform="matrix(0.1822222222222218,0,0,0.1822222222222218,287.3644444444438,0)" xlink:href="#f"/><use transform="matrix(0.1822222222222218,0,0,0.1822222222222218,392.8711111111102,0)" xlink:href="#g"/><use transform="matrix(0.1822222222222218,0,0,0.1822222222222218,448.4488888888878,0)" xlink:href="#h"/></g><path fill="#19967d" d="M506-32c-1 27-28 48-60 47-35-1-61-24-56-63l-9-3c-25 39-64 63-131 61C96 5 48-109 61-279c10-140 88-231 235-231 134 0 210 66 210 198v280zM275-99c71-4 115-44 115-117v-94c1-65-32-91-94-91-72 0-115 48-115 118v96c-1 48 44 90 94 88" id="i"/><path fill="#19967d" d="M320 9c-57 0-93-23-122-53l-8 2v215c0 26-27 47-57 47-31 0-59-20-60-47v-483c5-133 85-200 222-200 168 0 241 107 232 289C520-82 461 6 320 9zm-25-410c-58 0-105 27-105 87v107c-2 69 42 106 105 107 68 1 115-48 114-117v-67c1-69-46-118-114-117" id="j"/><g id="b"><use transform="matrix(0.062222222222222144,0,0,0.062222222222222144,0,0)" xlink:href="#i"/><use transform="matrix(0.062222222222222144,0,0,0.062222222222222144,36.088888888888846,0)" xlink:href="#j"/><use transform="matrix(0.062222222222222144,0,0,0.062222222222222144,72.30222222222213,0)" xlink:href="#j"/></g></defs></g></svg>